<?xml version="1.0" encoding="utf-8"?>
<!-- Svg Vector Icons : http://www.onlinewebfonts.com/icon -->
<!DOCTYPE svg PUBLIC "-//W3C//DTD SVG 1.1//EN" "http://www.w3.org/Graphics/SVG/1.1/DTD/svg11.dtd">
<svg version="1.1" xmlns="http://www.w3.org/2000/svg" xmlns:xlink="http://www.w3.org/1999/xlink" x="0px" y="0px" viewBox="0 0 1000 1000" enable-background="new 0 0 1000 1000" xml:space="preserve">
<metadata> Svg Vector Icons : http://www.onlinewebfonts.com/icon </metadata>
<g><path d="M629.4,654.7c-65.8,61.3-154.1,98.9-251.1,98.9C174.9,753.6,10,588.7,10,385.3C10,181.9,174.9,17,378.3,17s368.3,164.9,368.3,368.3c0,89.9-32.2,172.3-85.7,236.2c30.3,2.1,66.5,18.5,86.3,38.3l226.4,226.4c21.8,21.8,22.1,58,0,80.1c-22.3,22.3-58,22.1-80.1,0L667,740C647.6,720.6,631.8,684.2,629.4,654.7z M378.3,640.3c140.8,0,255-114.2,255-255c0-140.8-114.2-255-255-255c-140.8,0-255,114.2-255,255C123.3,526.1,237.5,640.3,378.3,640.3z"/></g>
</svg>